<?xml version="1.0" encoding="UTF-8"?><svg id="Layer_1" xmlns="http://www.w3.org/2000/svg" width="32" height="32" viewBox="0 0 32 32"><path d="M29.5,16c0-7.46-6.04-13.5-13.5-13.5S2.5,8.54,2.5,16s6.04,13.5,13.5,13.5c7.45,0,13.49-6.05,13.5-13.5Zm-12,10.39v-6.89h2.5c.83,0,1.5-.67,1.5-1.5s-.67-1.5-1.5-1.5h-2.5v-2.5c0-.83,.67-1.5,1.5-1.5h2c.83,0,1.5-.67,1.5-1.5s-.67-1.5-1.5-1.5h-2c-2.49,0-4.5,2.01-4.5,4.5v2.5h-2.5c-.83,0-1.5,.67-1.5,1.5s.67,1.5,1.5,1.5h2.5v6.89c-5.74-.83-9.72-6.15-8.89-11.89,.83-5.74,6.15-9.72,11.89-8.89,5.74,.83,9.72,6.15,8.89,11.89-.67,4.61-4.28,8.23-8.89,8.89Z"/></svg>