<?xml version="1.0" encoding="UTF-8"?><svg id="Layer_1" xmlns="http://www.w3.org/2000/svg" width="32" height="32" viewBox="0 0 32 32"><path d="M21.31,14.74l-7-4.5c-.71-.44-1.64-.23-2.08,.48-.15,.23-.23,.5-.23,.78v9c0,.55,.3,1.05,.79,1.31,.22,.12,.46,.19,.71,.19,.29,0,.57-.08,.81-.24l7-4.5c.7-.45,.9-1.38,.45-2.07-.12-.18-.27-.34-.45-.45Zm-6.31,3.01v-3.5l2.73,1.75-2.73,1.75Zm14.77-9.15c-.28-1.09-1.07-1.98-2.11-2.39-4.36-1.68-11.25-1.66-11.66-1.66s-7.3-.01-11.66,1.66c-1.05,.41-1.83,1.3-2.11,2.39-.32,1.26-.72,3.59-.72,7.4s.4,6.14,.72,7.4c.28,1.09,1.07,1.98,2.11,2.39,4.19,1.6,10.71,1.66,11.59,1.66h.15c.88,0,7.4-.06,11.59-1.66,1.05-.41,1.83-1.3,2.11-2.39,.33-1.26,.73-3.59,.73-7.4s-.4-6.14-.72-7.4Zm-2.9,14.05c-.04,.15-.15,.27-.29,.34-3.74,1.44-10.05,1.46-10.55,1.46h-.05c-.06,0-6.7,.02-10.57-1.46-.14-.07-.24-.19-.29-.34-.24-.9-.62-2.96-.62-6.65s.39-5.75,.62-6.65c.04-.15,.15-.27,.29-.34,3.88-1.49,10.51-1.46,10.57-1.46h.03c.06,0,6.7-.03,10.57,1.46,.14,.07,.24,.19,.29,.34,.24,.9,.62,2.96,.62,6.65s-.39,5.75-.62,6.65Z"/></svg>