<?xml version="1.0" encoding="UTF-8"?><svg id="Layer_1" xmlns="http://www.w3.org/2000/svg" width="32" height="32" viewBox="0 0 32 32"><path d="M16,10.25c-3.18,0-5.75,2.57-5.75,5.75s2.57,5.75,5.75,5.75,5.75-2.57,5.75-5.75h0c0-3.18-2.57-5.75-5.75-5.75Zm0,8.5c-1.52,0-2.75-1.23-2.75-2.75s1.23-2.75,2.75-2.75,2.75,1.23,2.75,2.75c0,1.52-1.23,2.74-2.75,2.75ZM22,2.5H10c-4.14,0-7.5,3.36-7.5,7.5v12c0,4.14,3.36,7.5,7.5,7.5h12c4.14,0,7.5-3.36,7.5-7.5V10c0-4.14-3.36-7.5-7.5-7.5Zm4.5,19.5c0,2.49-2.01,4.5-4.5,4.5H10c-2.49,0-4.5-2.01-4.5-4.5V10c0-2.49,2.01-4.5,4.5-4.5h12c2.49,0,4.5,2.01,4.5,4.5v12Zm-2-12.5c0,1.1-.9,2-2,2s-2-.9-2-2,.9-2,2-2,2,.9,2,2Z"/></svg>