<svg width="32" height="32" viewBox="0 0 256 256"><path fill="currentColor" d="m170.5 117.9l-56-36A12.1 12.1 0 0 0 96 92v72a11.9 11.9 0 0 0 6.3 10.5a11.3 11.3 0 0 0 5.7 1.5a11.7 11.7 0 0 0 6.5-1.9l56-36a12 12 0 0 0 0-20.2ZM120 142v-28l21.8 14Zm118.2-73.2a28 28 0 0 0-16.9-19.1c-34.9-13.4-90-13.3-93.3-13.3s-58.4-.1-93.3 13.3a28 28 0 0 0-16.9 19.1C15.2 78.9 12 97.5 12 128s3.2 49.1 5.8 59.2a28 28 0 0 0 16.9 19.1c33.5 12.8 85.7 13.3 92.7 13.3h1.2c7 0 59.2-.5 92.7-13.3a28 28 0 0 0 16.9-19.1c2.6-10.1 5.8-28.7 5.8-59.2s-3.2-49.1-5.8-59.2ZM215 181.2a4.4 4.4 0 0 1-2.3 2.7c-29.9 11.5-80.4 11.7-84.4 11.7h-.4c-.5 0-53.6.2-84.6-11.7a4.4 4.4 0 0 1-2.3-2.7c-1.9-7.2-5-23.7-5-53.2s3.1-46 5-53.2a4.4 4.4 0 0 1 2.3-2.7c31-11.9 84.1-11.7 84.6-11.7h.2c.5 0 53.6-.2 84.6 11.7a4.4 4.4 0 0 1 2.3 2.7c1.9 7.2 5 23.7 5 53.2s-3.1 46-5 53.2Z"/></svg>